<svg width="30" height="30" viewBox="0 0 30 30" fill="none" xmlns="http://www.w3.org/2000/svg">
<circle cx="15" cy="15" r="15" fill="white"/>
<path d="M24.0004 11.7274C24.0004 13.2464 23.397 14.7032 22.3229 15.7773C21.2488 16.8514 19.792 17.4548 18.273 17.4548C16.754 17.4548 15.2972 16.8514 14.2231 15.7773C13.149 14.7032 12.5456 13.2464 12.5456 11.7274C12.5456 10.2084 13.149 8.75162 14.2231 7.67752C15.2972 6.60342 16.754 6 18.273 6C19.792 6 21.2488 6.60342 22.3229 7.67752C23.397 8.75162 24.0004 10.2084 24.0004 11.7274ZM19.0912 8.4546C19.0912 8.2376 19.005 8.02949 18.8516 7.87605C18.6981 7.72261 18.49 7.6364 18.273 7.6364C18.056 7.6364 17.8479 7.72261 17.6945 7.87605C17.541 8.02949 17.4548 8.2376 17.4548 8.4546V10.9092H15.0002C14.7832 10.9092 14.5751 10.9954 14.4217 11.1489C14.2682 11.3023 14.182 11.5104 14.182 11.7274C14.182 11.9444 14.2682 12.1525 14.4217 12.306C14.5751 12.4594 14.7832 12.5456 15.0002 12.5456H17.4548V15.0002C17.4548 15.2172 17.541 15.4253 17.6945 15.5788C17.8479 15.7322 18.056 15.8184 18.273 15.8184C18.49 15.8184 18.6981 15.7322 18.8516 15.5788C19.005 15.4253 19.0912 15.2172 19.0912 15.0002V12.5456H21.5458C21.7628 12.5456 21.9709 12.4594 22.1244 12.306C22.2778 12.1525 22.364 11.9444 22.364 11.7274C22.364 11.5104 22.2778 11.3023 22.1244 11.1489C21.9709 10.9954 21.7628 10.9092 21.5458 10.9092H19.0912V8.4546ZM9.2728 9.2728H11.3281C11.5343 8.69025 11.8109 8.14205 12.1496 7.6364H9.2728C8.4048 7.6364 7.57235 7.98121 6.95858 8.59498C6.34481 9.20875 6 10.0412 6 10.9092V17.4548C6 18.3228 6.34481 19.1553 6.95858 19.769C7.57235 20.3828 8.4048 20.7276 9.2728 20.7276V23.1822C9.27288 23.3302 9.3131 23.4754 9.38918 23.6024C9.46525 23.7293 9.57434 23.8333 9.70481 23.9031C9.83529 23.973 9.98227 24.0061 10.1301 23.9991C10.2779 23.992 10.4211 23.945 10.5443 23.863L15.2473 20.7276H19.0912C19.8875 20.7276 20.6565 20.4373 21.2542 19.9111C21.8518 19.3848 22.2371 18.6587 22.3378 17.8688C21.5638 18.3823 20.6991 18.7438 19.79 18.9341C19.5716 19.0376 19.3329 19.0913 19.0912 19.0912H15.0002C14.8389 19.0913 14.6812 19.1392 14.5469 19.2287L10.9092 21.6538V19.9094C10.9092 19.6924 10.823 19.4843 10.6696 19.3309C10.5161 19.1774 10.308 19.0912 10.091 19.0912H9.2728C8.8388 19.0912 8.42258 18.9188 8.11569 18.6119C7.80881 18.305 7.6364 17.8888 7.6364 17.4548V10.9092C7.6364 10.4752 7.80881 10.059 8.11569 9.7521C8.42258 9.44521 8.8388 9.2728 9.2728 9.2728Z" fill="#8695A0"/>
</svg>
