<svg width="30" height="30" viewBox="0 0 30 30" fill="none" xmlns="http://www.w3.org/2000/svg">
<circle cx="15" cy="15" r="15" fill="white"/>
<path d="M13.6666 10.8334V16.3334L17.975 18.9917L18.7083 17.8917L15.0416 15.6917V10.8334H13.6666Z" fill="#8695A0"/>
<path d="M20.9267 14.5C21.0649 15.4111 21.004 16.3413 20.7481 17.2266C20.4923 18.1119 20.0476 18.9313 19.4447 19.6282C18.8419 20.3252 18.0951 20.8832 17.2559 21.2639C16.4166 21.6445 15.5049 21.8388 14.5834 21.8333C11.0084 21.8333 8.16671 18.9916 8.16671 15.4166C8.16671 11.8416 11.0084 8.99996 14.5834 8.99996C15.225 8.99996 15.8392 9.09163 16.4167 9.26579V7.37746C15.83 7.23996 15.2159 7.16663 14.5834 7.16663C10 7.16663 6.33337 10.8333 6.33337 15.4166C6.33337 20 10 23.6666 14.5834 23.6666C15.7454 23.6714 16.8953 23.4297 17.957 22.9574C19.0187 22.4851 19.9682 21.7929 20.7427 20.9265C21.5172 20.0602 22.0991 19.0395 22.45 17.9317C22.8009 16.8238 22.9128 15.6542 22.7784 14.5H20.9267Z" fill="#8695A0"/>
<path d="M22.8333 8.08337V5.33337H21V8.08337H18.25V9.91671H21V12.6667H22.8333V9.91671H25.5833V8.08337H22.8333Z" fill="#8695A0"/>
</svg>
