<svg width="18" height="18" viewBox="0 0 18 18" fill="none" xmlns="http://www.w3.org/2000/svg">
<path d="M9.53996 1.52246C8.46706 1.44436 7.38991 1.59819 6.38176 1.97348C5.3736 2.34878 4.45807 2.93674 3.69741 3.69741C2.93674 4.45807 2.34878 5.3736 1.97348 6.38176C1.59819 7.38991 1.44436 8.46706 1.52246 9.53996C1.79246 13.5075 5.25746 16.5 9.23246 16.5H12C12.4125 16.5 12.75 16.1625 12.75 15.75C12.75 15.3375 12.4125 15 12 15H9.24746C6.44996 15 3.88496 13.185 3.18746 10.4775C2.06996 6.12746 6.11996 2.06996 10.47 3.19496C13.185 3.88496 15 6.44996 15 9.24746V10.0725C15 10.665 14.4675 11.25 13.875 11.25C13.2825 11.25 12.75 10.665 12.75 10.0725V9.13496C12.75 7.25246 11.415 5.55746 9.55496 5.29496C8.96318 5.20697 8.35894 5.26161 7.79255 5.45435C7.22615 5.64709 6.714 5.97234 6.29872 6.40303C5.88344 6.83371 5.57705 7.35737 5.40507 7.93041C5.23308 8.50345 5.20047 9.10928 5.30996 9.69746C5.4415 10.4062 5.77468 11.0619 6.26954 11.5861C6.76441 12.1102 7.39995 12.4805 8.09996 12.6525C9.47996 12.975 10.7925 12.5325 11.655 11.655C12.3225 12.57 13.6575 13.05 14.88 12.5625C15.885 12.165 16.5 11.1375 16.5 10.0575V9.23996C16.5 5.25746 13.5075 1.79246 9.53996 1.52246ZM8.99996 11.25C7.75496 11.25 6.74996 10.245 6.74996 8.99996C6.74996 7.75496 7.75496 6.74996 8.99996 6.74996C10.245 6.74996 11.25 7.75496 11.25 8.99996C11.25 10.245 10.245 11.25 8.99996 11.25Z" fill="#C6C6C6"/>
</svg>
