<svg width="52" height="54" viewBox="0 0 52 54" fill="none" xmlns="http://www.w3.org/2000/svg">
    <circle cx="26" cy="26" r="24" transform="rotate(-90 26 26)" fill="white" fill-opacity="0.15" />
    <circle class="progress-circle" r="20" cx="27" cy="27" stroke="#76e5b1" stroke-width="8" stroke-linecap="round"
        stroke-dashoffset="89px" fill="transparent" stroke-dasharray="125.6px"
        style="transform: rotate(-90deg); transform-origin: center"></circle>

    <g filter="url(#filter0_d_255_114)">
        <circle cx="26" cy="26" r="20" fill="white" />
    </g>

    <g class="icon-inside">
        <path
            d="M22 16H20C19.4696 16 18.9609 16.2107 18.5858 16.5858C18.2107 16.9609 18 17.4696 18 18V34C18 34.5304 18.2107 35.0391 18.5858 35.4142C18.9609 35.7893 19.4696 36 20 36H22C22.5304 36 23.0391 35.7893 23.4142 35.4142C23.7893 35.0391 24 34.5304 24 34V18C24 17.4696 23.7893 16.9609 23.4142 16.5858C23.0391 16.2107 22.5304 16 22 16ZM32 16H30C29.4696 16 28.9609 16.2107 28.5858 16.5858C28.2107 16.9609 28 17.4696 28 18V34C28 34.5304 28.2107 35.0391 28.5858 35.4142C28.9609 35.7893 29.4696 36 30 36H32C32.5304 36 33.0391 35.7893 33.4142 35.4142C33.7893 35.0391 34 34.5304 34 34V18C34 17.4696 33.7893 16.9609 33.4142 16.5858C33.0391 16.2107 32.5304 16 32 16Z"
            fill="#00CC9B" />
    </g>

    <defs>
        <filter id="filter0_d_255_114" x="1" y="4" width="50" height="50" filterUnits="userSpaceOnUse"
            color-interpolation-filters="sRGB">
            <feFlood flood-opacity="0" result="BackgroundImageFix" />
            <feColorMatrix in="SourceAlpha" type="matrix" values="0 0 0 0 0 0 0 0 0 0 0 0 0 0 0 0 0 0 127 0"
                result="hardAlpha" />
            <feMorphology radius="1" operator="erode" in="SourceAlpha" result="effect1_dropShadow_255_114" />
            <feOffset dy="3" />
            <feGaussianBlur stdDeviation="3" />
            <feComposite in2="hardAlpha" operator="out" />
            <feColorMatrix type="matrix" values="0 0 0 0 0 0 0 0 0 0 0 0 0 0 0 0 0 0 0.25 0" />
            <feBlend mode="normal" in2="BackgroundImageFix" result="effect1_dropShadow_255_114" />
            <feBlend mode="normal" in="SourceGraphic" in3="effect1_dropShadow_255_114" result="shape" />
        </filter>
    </defs>
    <script>
        //  <![CDATA[

        const svgElement = document.currentScript.parentNode;
        const progressCircle = svgElement.querySelector(".progress-circle");
        const iconInside = svgElement.querySelector(".icon-inside");

        const maxPx = parseFloat(progressCircle.getAttribute("stroke-dasharray"));

        svgElement.setProgress = (progress) => {
            svgElement.dataset.progress = progress;
            progressCircle.setAttribute("stroke-dashoffset", (maxPx - maxPx * progress / 100) + "px");
        }

        svgElement.setColor = (color) => {
            progressCircle.setAttribute("stroke", color);
        }

        svgElement.setIcon = (icon) => {
            iconInside.innerHTML = icon;
        }

        svgElement.dataset.progress && svgElement.setProgress(+svgElement.dataset.progress);

        // ]]>
    </script>
</svg>