<svg width="24" height="24" viewBox="0 0 24 24" fill="none" xmlns="http://www.w3.org/2000/svg">
<path fill-rule="evenodd" clip-rule="evenodd" d="M4 5C4 4.44772 4.44772 4 5 4H10C11.1046 4 12 4.89543 12 6C12 7.10457 11.1046 8 10 8H6V18H18V14C18 13.4477 18.4477 13 19 13C19.5523 13 20 13.4477 20 14V19C20 19.5523 19.5523 20 19 20H5C4.44772 20 4 19.5523 4 19V5Z" fill="white"/>
<path d="M19 5L12 12" stroke="white" stroke-linecap="round"/>
<path d="M14 4.5C14 4.22386 14.2239 4 14.5 4H19C19.5523 4 20 4.44772 20 5H14.5C14.2239 5 14 4.77614 14 4.5Z" fill="white"/>
<path d="M19.5 10C19.2239 10 19 9.77614 19 9.5L19 4C19.5523 4 20 4.44772 20 5L20 9.5C20 9.77614 19.7761 10 19.5 10Z" fill="white"/>
</svg>
